<svg xmlns="http://www.w3.org/2000/svg" xmlns:xlink="http://www.w3.org/1999/xlink" fill="none" version="1.1" width="34.95794677734375" height="34.9578857421875" viewBox="0 0 34.95794677734375 34.9578857421875"><g><g><path d="" fill="#909090" fill-opacity="0"/></g><g><path d="M4.36973032409668,14.565826416015625C4.36973032409668,14.565826416015625,30.58816032409668,14.565826416015625,30.58816032409668,14.565826416015625C31.55926032409668,14.565826416015625,32.04476032409668,15.051361416015625,32.04476032409668,16.022396416015624C32.04476032409668,16.022396416015624,32.04476032409668,30.588226416015626,32.04476032409668,30.588226416015626C32.04476032409668,31.559226416015626,31.55926032409668,32.044826416015624,30.58816032409668,32.044826416015624C30.58816032409668,32.044826416015624,4.36973032409668,32.044826416015624,4.36973032409668,32.044826416015624C3.3986793240966797,32.044826416015624,2.9131603240966797,31.559226416015626,2.9131603240966797,30.588226416015626C2.9131603240966797,30.588226416015626,2.9131603240966797,16.022396416015624,2.9131603240966797,16.022396416015624C2.9131603240966797,15.051361416015625,3.3986793240966797,14.565826416015625,4.36973032409668,14.565826416015625C4.36973032409668,14.565826416015625,4.36973032409668,14.565826416015625,4.36973032409668,14.565826416015625Z" fill="#4A90E2" fill-opacity="0.6000000238418579"/></g><g><path d="M17.917394592590334,1.9576488420410156C17.917394592590334,1.9576488420410156,26.830174592590332,12.143531842041016,26.830174592590332,12.143531842041016C26.980474592590333,12.315731842041016,27.01627459259033,12.560031842041015,26.921474592590332,12.768131842041015C26.826674592590333,12.976131842041015,26.61897459259033,13.109531842041015,26.390374592590334,13.109231842041016C26.390374592590334,13.109231842041016,8.567617592590333,13.109231842041016,8.567617592590333,13.109231842041016C8.338979592590333,13.109531842041015,8.131277592590331,12.976131842041015,8.036504792590332,12.768131842041015C7.941717192590332,12.560031842041015,7.977407512590332,12.315731842041016,8.127737592590332,12.143531842041016C8.127737592590332,12.143531842041016,17.04198459259033,1.9576488420410156,17.04198459259033,1.9576488420410156C17.152624592590332,1.8312378420410156,17.312424592590332,1.7587318420410156,17.480414592590332,1.7587318420410156C17.648394592590332,1.7587318420410156,17.808214592590332,1.8312378420410156,17.918854592590332,1.9576488420410156C17.918854592590332,1.9576488420410156,17.917394592590334,1.9576488420410156,17.917394592590334,1.9576488420410156Z" fill="#4A90E2" fill-opacity="1"/></g><g><path d="M13.109212875366211,13.109222412109375C13.109212875366211,13.109222412109375,21.84871287536621,13.109222412109375,21.84871287536621,13.109222412109375C21.84871287536621,13.109222412109375,21.84871287536621,24.761822412109375,21.84871287536621,24.761822412109375C21.84871287536621,24.761822412109375,13.109212875366211,24.761822412109375,13.109212875366211,24.761822412109375C13.109212875366211,24.761822412109375,13.109212875366211,13.109222412109375,13.109212875366211,13.109222412109375C13.109212875366211,13.109222412109375,13.109212875366211,13.109222412109375,13.109212875366211,13.109222412109375ZM13.109212875366211,26.218522412109373C13.109212875366211,26.218522412109373,21.84871287536621,26.218522412109373,21.84871287536621,26.218522412109373C21.84871287536621,26.218522412109373,21.84871287536621,27.675022412109374,21.84871287536621,27.675022412109374C21.84871287536621,27.675022412109374,13.109212875366211,27.675022412109374,13.109212875366211,27.675022412109374C13.109212875366211,27.675022412109374,13.109212875366211,26.218522412109373,13.109212875366211,26.218522412109373C13.109212875366211,26.218522412109373,13.109212875366211,26.218522412109373,13.109212875366211,26.218522412109373Z" fill="#4A90E2" fill-opacity="1"/></g><g><path d="M17.770315170288086,22.14001064453125C17.770315170288086,22.94446064453125,18.422415170288087,23.59656064453125,19.226855170288086,23.59656064453125C20.031365170288087,23.59656064453125,20.683525170288085,22.94446064453125,20.683525170288085,22.14001064453125C20.683525170288085,21.33557164453125,20.031365170288087,20.68341064453125,19.226855170288086,20.68341064453125C18.422415170288087,20.68341064453125,17.770315170288086,21.33557164453125,17.770315170288086,22.14001064453125C17.770315170288086,22.14001064453125,17.770315170288086,22.14001064453125,17.770315170288086,22.14001064453125Z" fill="#E02020" fill-opacity="1"/></g></g></svg>