<svg xmlns="http://www.w3.org/2000/svg" xmlns:xlink="http://www.w3.org/1999/xlink" fill="none" version="1.1" width="33.666748046875" height="33.666748046875" viewBox="0 0 33.666748046875 33.666748046875"><g><g><path d="M13.827453613303126,22.845303095703123C13.827453613303126,27.825723095703125,17.864873095703125,31.863223095703123,22.845303095703123,31.863223095703123C27.825723095703125,31.863223095703123,31.863223095703123,27.825723095703125,31.863223095703123,22.845303095703123C31.863223095703123,17.864873095703125,27.825723095703125,13.827453613303126,22.845303095703123,13.827423095703125C17.864873095703125,13.827423095703125,13.827453613303126,17.864873095703125,13.827423095703125,22.845303095703123C13.827423095703125,22.845303095703123,13.827453613303126,22.845303095703123,13.827453613303126,22.845303095703123Z" fill="#EEFAF0" fill-opacity="1"/></g><g><path d="M32.1638,27.0536C32.1638,27.0536,30.0596,27.0536,30.0596,27.0536C30.0596,27.0536,30.0596,15.026,30.0596,15.026C30.0596,8.31148,24.987,2.72415,18.4866,1.90503C18.4866,1.90503,18.4866,1.65327,18.4866,1.65327C18.4866,0.743973,17.7427,0,16.8334,0C15.9241,0,15.1801,0.743973,15.1801,1.65327C15.1801,1.65327,15.1801,1.90503,15.1801,1.90503C8.67971,2.72415,3.60715,8.31148,3.60715,15.026C3.60715,15.026,3.60715,27.0536,3.60715,27.0536C3.60715,27.0536,1.50298,27.0536,1.50298,27.0536C0.676338,27.0536,0,27.73,0,28.5566C0,29.3833,0.676338,30.0596,1.50298,30.0596C1.50298,30.0596,13.0797,30.0596,13.0797,30.0596C13.1586,32.0623,14.8119,33.6667,16.8334,33.6667C18.8549,33.6667,20.5082,32.0623,20.5871,30.0596C20.5871,30.0596,32.1638,30.0596,32.1638,30.0596C32.9904,30.0596,33.6667,29.3833,33.6667,28.5566C33.6667,27.73,32.9904,27.0536,32.1638,27.0536C32.1638,27.0536,32.1638,27.0536,32.1638,27.0536ZM16.8334,31.262C16.1382,31.262,15.5634,30.7359,15.4882,30.0596C15.4882,30.0596,18.1748,30.0596,18.1748,30.0596C18.1034,30.7359,17.5285,31.262,16.8334,31.262C16.8334,31.262,16.8334,31.262,16.8334,31.262ZM27.0536,27.0499C27.0536,27.0499,6.61311,27.0499,6.61311,27.0499C6.61311,27.0499,6.61311,15.026,6.61311,15.026C6.61311,13.6546,6.88365,12.3207,7.41721,11.0657C7.93573,9.84827,8.67595,8.75486,9.61907,7.81174C10.5622,6.86862,11.6556,6.1284,12.873,5.60987C14.128,5.07632,15.4619,4.80578,16.8334,4.80578C18.2048,4.80578,19.5387,5.07632,20.7937,5.60987C22.0111,6.1284,23.1046,6.86862,24.0477,7.81174C24.9908,8.75486,25.731,9.84827,26.2495,11.0657C26.7831,12.3207,27.0536,13.6546,27.0536,15.026C27.0536,15.026,27.0536,27.0499,27.0536,27.0499C27.0536,27.0499,27.0536,27.0499,27.0536,27.0499Z" fill="#1CC6A1" fill-opacity="1"/></g><g><path d="M23.145872890625,14.729217529296875C22.401916890625,14.729217529296875,21.793212890625,15.337921529296874,21.793212890625,16.081907529296874C21.793212890625,16.081907529296874,21.793212890625,22.394437529296873,21.793212890625,22.394437529296873C21.793212890625,23.138397529296874,22.401916890625,23.747097529296873,23.145872890625,23.747097529296873C23.889892890625,23.747097529296873,24.498592890624998,23.138397529296874,24.498592890624998,22.394437529296873C24.498592890624998,22.394437529296873,24.498592890624998,16.081907529296874,24.498592890624998,16.081907529296874C24.498592890624998,15.337921529296874,23.889892890625,14.729217529296875,23.145872890625,14.729217529296875C23.145872890625,14.729217529296875,23.145872890625,14.729217529296875,23.145872890625,14.729217529296875Z" fill="#08B28A" fill-opacity="1"/></g></g></svg>