<?xml version="1.0" standalone="no"?><!DOCTYPE svg PUBLIC "-//W3C//DTD SVG 1.1//EN" "http://www.w3.org/Graphics/SVG/1.1/DTD/svg11.dtd"><svg t="1702996645750" class="icon" viewBox="0 0 1024 1024" version="1.1" xmlns="http://www.w3.org/2000/svg" p-id="5129" xmlns:xlink="http://www.w3.org/1999/xlink" width="200" height="200"><path d="M168.8064 111.5648a114.432 114.432 0 0 0-114.3808 114.432v572.0576c0 63.1296 51.2 114.3296 114.3296 114.3296h314.6752a28.5696 28.5696 0 1 0-0.0512-57.1904H168.7552c-31.5392 0-57.1392-25.6-57.1392-57.1904V225.9968c0-31.5904 25.6-57.1904 57.1392-57.1904h314.6752a28.672 28.672 0 0 0 0.0512-57.2416H168.8064z" fill="#1296db" p-id="5130"></path><path d="M960 533.1968l-323.84 292.7104c-36.7616 33.28-95.5392 7.2192-95.5392-42.3936V666.624a7.168 7.168 0 0 0-7.2192-7.1168H254.6176a28.672 28.672 0 0 1-28.5696-28.7232V393.1136c0-15.872 12.8-28.6208 28.5696-28.6208h278.8352a7.168 7.168 0 0 0 7.2192-7.168V240.384c0-49.5616 58.7776-75.7248 95.5392-42.4448l323.7888 292.7616a28.4672 28.4672 0 0 1 0 42.496z" fill="#1296db" p-id="5131"></path></svg>