<svg xmlns="http://www.w3.org/2000/svg" xmlns:xlink="http://www.w3.org/1999/xlink" fill="none" version="1.1" width="128" height="112.44792175292969" viewBox="0 0 128 112.44792175292969"><g><g><g><path d="M51.454995531463624,18.844834078833006C51.454995531463624,18.844834078833006,29.96349553146362,22.79427017883301,33.495126531463626,46.57573017883301C37.02675553146362,70.35713017883302,66.34149553146362,69.130630178833,74.93729553146363,66.503830178833C83.53299553146363,63.87333017883301,100.72459553146362,54.685130178833006,92.89709553146362,32.846930178833006C88.75409553146363,21.589870178833007,79.08439553146363,18.56775017883301,74.47879553146362,18.844834078833006C69.87739553146362,19.11822617883301,51.454995531463624,18.844834078833006,51.454995531463624,18.844834078833006C51.454995531463624,18.844834078833006,51.454995531463624,18.844834078833006,51.454995531463624,18.844834078833006Z" fill="#ACACEF" fill-opacity="1"/></g><g><path d="M54.82684552822113,58.95955424804688C49.193645528221126,56.125954248046874,45.23464552822113,51.26395424804687,43.82844552822113,45.67795424804687C41.13738552822113,34.98605424804688,45.43544552822113,23.795384248046876,45.43544552822113,23.795384248046876C45.43544552822113,23.795384248046876,47.62844552822113,20.119354248046875,47.62844552822113,20.119354248046875C41.50988552822113,22.602054248046876,30.93002552822113,29.440614248046877,33.50383052822113,46.57925424804688C37.08207552822113,70.36445424804688,66.78344552822114,69.13425424804687,75.49264552822113,66.50745424804688C79.20904552822114,65.38425424804687,84.51564552822113,63.064154248046876,88.75524552822114,59.077854248046876C75.04074552822112,65.52475424804688,62.59854552822113,62.86835424804688,54.82684552822113,58.95955424804688C54.82684552822113,58.95955424804688,54.82684552822113,58.95955424804688,54.82684552822113,58.95955424804688Z" fill="#9E9AEA" fill-opacity="1"/></g><g><path d="M63.822199999999995,68.96805909729004C57.729600000000005,68.96805909729004,50.5634,67.75815909729005,44.5162,63.93095909729004C37.65849,59.59135909729004,33.58169,52.77735909729004,32.39698,43.66945909729004C30.50873,29.15495909729004,35.71676,20.97135909729004,40.41885,16.66111909729004C45.5199,11.985399097290038,51.0242,10.788116497290039,51.254599999999996,10.737701397290039C51.340900000000005,10.72090149729004,51.4315,10.708282497290039,51.5219,10.71249389729004C51.7071,10.716705297290039,69.86529999999999,11.019165097290038,74.3493,10.716705297290039C79.2612,10.38061509729004,88.2333,13.817049097290038,92.87780000000001,24.64725909729004C93.15350000000001,25.28585909729004,92.8655,26.02935909729004,92.24430000000001,26.306659097290037C91.619,26.58815909729004,90.8909,26.294059097290038,90.6194,25.65975909729004C86.485,16.018359097290038,78.72229999999999,12.95162909729004,74.5139,13.233049097290039C70.0957,13.535509097290038,53.5171,13.270859097290039,51.6289,13.237259097290039C50.835,13.434709097290039,46.1946,14.71180909729004,41.98209,18.614549097290038C35.84844,24.29435909729004,33.4419,32.616559097290036,34.83646,43.34595909729004C35.91837,51.66815909729004,39.60842,57.87305909729004,45.807900000000004,61.79675909729004C55.8661,68.16135909729005,69.7171,66.64895909729003,74.48910000000001,64.98115909729003C78.49600000000001,63.58225909729004,98.1927,55.39445909729004,92.4787,31.46535909729004C92.3183,30.78905909729004,92.7214,30.10845909729004,93.38380000000001,29.940459097290038C94.05019999999999,29.77235909729004,94.7125,30.19245909729004,94.8771,30.86465909729004C101.0971,56.91935909729004,79.64789999999999,65.83815909729003,75.2873,67.36315909729004C72.92179999999999,68.18655909729003,68.7176,68.96795909729005,63.822199999999995,68.96795909729005C63.822199999999995,68.96795909729005,63.822199999999995,68.96805909729004,63.822199999999995,68.96805909729004Z" fill="#000F04" fill-opacity="1"/></g><g><path d="M57.20936224899292,10.821186542053223C55.03696224899292,8.781826542053222,46.23670224899292,1.5775965420532225,40.00411224899292,12.143826542053223C39.38713824899292,13.189356542053222,39.65683714899292,14.534176542053222,40.64696424899292,15.239796542053222C42.88582224899292,16.839516542053225,45.87836224899292,17.231116542053222,47.41897224899292,17.323516542053223C47.82168224899292,17.349316542053224,48.04703224899292,17.796416542053223,47.82537224899292,18.128916542053222C46.84632224899292,19.617816542053223,45.26137224899292,23.109116542053222,47.987922248992916,27.557216542053222C48.49407224899292,28.384816542053223,49.46203224899292,28.82441654205322,50.41526224899292,28.643416542053224C56.40396224899292,27.505516542053222,58.15516224899292,25.643516542053224,59.57756224899292,22.942816542053222C59.78076224899292,22.554916542053224,60.31646224899292,22.51051654205322,60.593562248992924,22.846716542053223C62.98016224899292,25.743216542053222,65.60696224899291,27.85651654205322,72.14256224899292,26.341716542053224C73.07726224899292,26.123816542053223,73.79396224899293,25.351616542053222,73.92326224899293,24.40211654205322C74.46266224899293,20.452716542053224,73.39126224899292,17.27541654205322,71.48856224899292,15.657316542053223C71.13756224899292,15.358026542053222,71.29646224899292,14.792776542053222,71.74716224899292,14.693016542053222C73.38756224899292,14.330956542053222,74.79886224899292,13.488606542053223,75.74836224899292,12.498496542053223C76.57966224899292,11.630286542053224,76.57596224899292,10.263326542053223,75.77786224899292,9.365566542053223C72.78906224899292,6.003562542053222,65.21536224899292,1.7475465420532226,58.132962248992925,10.754696542053223C57.90766224899292,11.046566542053224,57.47906224899292,11.072406542053223,57.20936224899292,10.821186542053223C57.20936224899292,10.821186542053223,57.20936224899292,10.821186542053223,57.20936224899292,10.821186542053223Z" fill="#BFE5BD" fill-opacity="1"/></g><g><path d="M71.74715120620728,14.700407021484375C61.92355120620728,13.943037021484376,63.24615120620727,8.874187021484374,65.78795120620728,5.526947021484375C65.76955120620727,5.530639651484375,65.75105120620728,5.534332271484375,65.72885120620728,5.538024921484375C64.48385120620728,5.848358021484375,63.42715120620727,6.276932021484375,62.53315120620728,6.764607021484375C61.46545120620728,7.388977021484375,60.382951206207274,8.249787021484375,59.307851206207275,9.398777021484374C58.35095120620727,10.569927021484375,58.02585120620728,11.515717021484374,58.02585120620728,11.515717021484374C58.02585120620728,11.515717021484374,57.91495120620728,11.297747021484376,57.68595120620728,10.994797021484375C57.51965120620727,11.005887021484375,57.34605120620728,10.950467021484375,57.213051206207275,10.824857021484375C56.638951206207274,10.285247021484375,56.03185120620728,9.781827021484375,55.39535120620727,9.317507021484374C55.070251206207274,9.202977021484376,54.71555120620727,9.117997021484374,54.323951206207276,9.077367021484374C46.86844120620727,15.675747021484375,42.17642120620727,14.238567021484375,39.84152220620727,12.487367021484374C39.45361320620727,13.470107021484374,39.76025360620728,14.615407021484375,40.646926206207276,15.247157021484375C42.885801206207276,16.846847021484376,45.878321206207275,17.238447021484376,47.41894120620728,17.330847021484374C47.821641206207275,17.356747021484374,48.04700120620728,17.803747021484376,47.825331206207274,18.136247021484373C47.27485120620727,18.971247021484373,46.53595120620727,20.434247021484374,46.47314120620727,22.344347021484374C50.400351206207276,16.322247021484372,55.68725120620728,15.830947021484375,56.592351206207276,17.031647021484375C59.95435120620728,21.897247021484375,51.20585120620728,28.488247021484376,51.198451206207274,28.495647021484373C56.56285120620727,27.346647021484376,58.22165120620728,25.532647021484376,59.58125120620728,22.953947021484375C59.78445120620728,22.565947021484376,60.32015120620727,22.521647021484377,60.597251206207275,22.857847021484375C62.18955120620728,24.786347021484374,63.88905120620727,26.367647021484373,66.77445120620727,26.759247021484374C67.19565120620727,26.774047021484375,67.58355120620728,26.803547021484373,67.91605120620727,26.851647021484375C63.999851206207275,25.750647021484376,60.161251206207275,20.951447021484377,61.25855120620727,17.655947021484373C62.35585120620728,14.360487021484374,72.03535120620728,16.207747021484373,72.03535120620728,16.207747021484373C71.86175120620727,16.015647021484376,71.68065120620727,15.830947021484375,71.48855120620728,15.668347021484376C71.13395120620727,15.365407021484375,71.29645120620728,14.796447021484376,71.74715120620728,14.700397021484376C71.74715120620728,14.700397021484376,71.74715120620728,14.700407021484375,71.74715120620728,14.700407021484375Z" fill="#A2DD9E" fill-opacity="1"/></g><g><path d="M49.99406452636719,29.799756160736084C48.811764526367185,29.799756160736084,47.677614526367186,29.179156160736085,47.04216452636719,28.144656160736083C46.495374526367186,27.254256160736084,46.07420452636719,26.341756160736082,45.797104526367185,25.432856160736083C45.68258452636719,25.063456160736084,45.59022452636719,24.686656160736085,45.52002452636719,24.313456160736084C45.407794526367184,23.711556160736084,45.80477452636719,23.132656160736083,46.406704526367186,23.020356160736085C47.008624526367186,22.908156160736084,47.587554526367185,23.305156160736082,47.69978452636719,23.907056160736083C47.75520452636719,24.195256160736083,47.82539452636719,24.490756160736083,47.914064526367184,24.778956160736083C48.139424526367186,25.510456160736084,48.483014526367185,26.253056160736083,48.933764526367185,26.988256160736086C49.203464526367185,27.427956160736084,49.716964526367185,27.660656160736085,50.20836452636719,27.564656160736085C56.064164526367186,26.452556160736084,57.42366452636719,24.660756160736085,58.598564526367184,22.436656160736085C58.86456452636719,21.928356160736083,59.36866452636718,21.588056160736084,59.93966452636719,21.531556160736084C60.515564526367186,21.471756160736085,61.08306452636719,21.704856160736085,61.45066452636719,22.152156160736084C63.54916452636719,24.697656160736084,65.78436452636718,26.689056160736083,71.89496452636719,25.270356160736085C72.38636452636719,25.155856160736082,72.76316452636718,24.749456160736084,72.8296645263672,24.261756160736084C73.28416452636719,20.944056160736086,72.49716452636719,17.973756160736084,70.77556452636719,16.510656160736083C70.29676452636718,16.104156160736082,70.09046452636719,15.460956160736083,70.24356452636718,14.851856160736084C70.39546452636719,14.230836160736084,70.88926452636719,13.751436160736084,71.51446452636719,13.617876160736085C72.83336452636718,13.326006160736084,74.08586452636719,12.642516160736085,74.95406452636719,11.737366160736084C75.37516452636719,11.297726160736083,75.37516452636719,10.580996160736085,74.95406452636719,10.108096160736084C73.33586452636719,8.290406160736083,70.44676452636719,6.384046160736084,67.20296452636718,6.480106160736084C64.28796452636719,6.568766160736084,61.53186452636719,8.238676160736084,59.01226452636719,11.445496160736084C58.71276452636719,11.825256160736084,58.26796452636719,12.062366160736083,57.785664526367185,12.099426160736083C57.29916452636719,12.135696160736085,56.81966452636719,11.966916160736083,56.46306452636719,11.633926160736085C55.32516452636719,10.566226160736084,51.29816452636719,7.122956160736084,47.21572452636719,7.706666160736084C44.83277452636719,8.046566160736084,42.73060452636719,9.731266160736084,40.97203452636719,12.712706160736085C40.64321452636719,13.274276160736084,40.78361452636719,13.972536160736084,41.304534526367185,14.345656160736084C43.30694452636719,15.775456160736084,46.044574526367185,16.137556160736082,47.49650452636719,16.226156160736082C48.07653452636718,16.263156160736084,48.59746452636719,16.606756160736083,48.85606452636719,17.123956160736086C49.114664526367186,17.641156160736085,49.07776452636719,18.265556160736082,48.76006452636719,18.749556160736084C48.50140452636719,19.141156160736085,48.279734526367186,19.562356160736083,48.10240452636719,20.001956160736086C47.99198452636719,20.274556160736083,47.77763452636719,20.492156160736084,47.506604526367184,20.606456160736084C47.23559452636719,20.720856160736083,46.930224526367184,20.722656160736083,46.65785452636719,20.611556160736082C46.38520452636719,20.501156160736084,46.16770452636719,20.286756160736083,46.053324526367184,20.015756160736082C45.93896452636719,19.744756160736085,45.937144526367184,19.439356160736082,46.04826452636719,19.166956160736085C46.15910452636719,18.889956160736084,46.28471452636719,18.620256160736083,46.42511452636719,18.354256160736085C44.64805452636719,18.154756160736085,42.06929452636719,17.611656160736082,40.01515452636719,16.144856160736083C38.55213922636719,15.103056160736084,38.14573652636719,13.141266160736084,39.06196552636719,11.582196160736084C41.17892452636719,7.9911461607360845,43.81678452636719,5.948086160736084,46.90165452636719,5.508456160736084C51.490264526367184,4.854522160736084,55.68346452636719,7.957896160736084,57.60086452636719,9.668456160736085C60.464164526367185,6.188236160736084,63.670964526367186,4.370544160736084,67.14006452636718,4.263397080736084C71.13746452636718,4.141479160736084,74.66576452636718,6.4431461607360845,76.6164645263672,8.633986160736084C77.80236452636719,9.967716160736085,77.7765645263672,12.003376160736085,76.56106452636719,13.270586160736084C75.59306452636719,14.279156160736084,74.3295645263672,15.062456160736083,72.93306452636719,15.524256160736083C74.75446452636719,17.596856160736085,75.5376645263672,20.888656160736083,75.03526452636719,24.560956160736083C74.84306452636719,25.957456160736083,73.78646452636718,27.110156160736086,72.40476452636719,27.431556160736083C65.54036452636718,29.020156160736082,62.52566452636719,26.773956160736084,60.216564526367186,24.110256160736085C58.605864526367185,26.836856160736083,56.348564526367184,28.650856160736083,50.622164526367186,29.740656160736084C50.41156452636719,29.781356160736085,50.20096452636719,29.799756160736084,49.99406452636719,29.799756160736084C49.99406452636719,29.799756160736084,49.99406452636719,29.799756160736084,49.99406452636719,29.799756160736084Z" fill="#000F04" fill-opacity="1"/></g><g><path d="M63.6605698815918,1.1083488464355469C63.6605698815918,1.1083488464355469,58.8134008815918,6.598358846435547,58.0782020115918,12.915948846435548C58.033859981591796,13.784148846435547,59.4045298815918,15.202848846435547,62.1975598815918,14.197948846435548C63.294849881591794,13.787848846435548,63.113819881591795,12.321148846435547,63.113819881591795,11.131448846435546C63.113819881591795,9.941878846435547,65.49305988159179,3.062708846435547,66.6826598815918,1.832484846435547C65.7220898815918,1.1083641052355468,63.6605698815918,1.1083641052355468,63.6605698815918,1.1083641052355468C63.6605698815918,1.1083641052355468,63.6605698815918,1.1083488464355469,63.6605698815918,1.1083488464355469Z" fill="#A2DD9E" fill-opacity="1"/></g><g><path d="M63.85801769042969,15.6535C62.709027690429686,15.6535,61.947947690429686,15.2545,61.52308769042969,14.9405C60.79530369042969,14.4011,60.388870090429684,13.6216,60.42582688042969,12.8568C60.42582688042969,12.8346,60.429519500429684,12.8088,60.43321213042969,12.7866C61.19798269042969,6.20307,66.0783876904297,0.609589,66.28529769042969,0.373138C66.49586769042969,0.133003,66.79877769042969,0,67.11652769042969,0C67.52290769042969,0,69.61030769042969,0.0443344,70.8073076904297,0.949486C71.06230769042969,1.1416,71.22110769042969,1.43346,71.24330769042969,1.7475C71.26540769042968,2.06153,71.15460769042969,2.37556,70.93290769042969,2.60461C69.99085769042969,3.57627,67.70396769042969,10.0933,67.67439769042969,11.1352C67.67439769042969,11.2719,67.67811769042969,11.416,67.67811769042969,11.5638C67.70026769042968,12.7719,67.73353769042969,14.6007,66.0377376904297,15.2361C65.19910769042968,15.5391,64.47126769042968,15.6536,63.85798769042969,15.6536C63.85798769042969,15.6536,63.85801769042969,15.6535,63.85801769042969,15.6535ZM62.64622769042969,12.9455C62.67579769042969,13.0083,62.771837690429685,13.1376,62.98609769042969,13.2521C63.29273769042969,13.4147,64.00208769042969,13.6142,65.27302769042969,13.1561C65.48728769042968,13.0748,65.47248769042969,12.1179,65.46143769042969,11.6044C65.45771769042969,11.4455,65.45405769042969,11.2867,65.45405769042969,11.1315C65.45405769042969,10.001,67.07594769042969,4.96907,68.47242769042968,2.36074C68.18797769042969,2.30532,67.88871769042969,2.26468,67.61164769042969,2.24252C66.55128769042969,3.56884,63.252117690429685,8.03179,62.64622769042969,12.9454C62.64622769042969,12.9454,62.64622769042969,12.9455,62.64622769042969,12.9455ZM78.55840769042969,51.3683C78.04770769042969,51.3688,77.60290769042969,51.0202,77.48100769042969,50.5243C77.35930769042969,50.0283,77.59210769042969,49.5133,78.04490769042968,49.2772C83.00660769042969,46.691,85.84030769042968,42.749,86.46830769042968,37.5657C86.54220769042969,36.9598,87.09270769042969,36.5238,87.70230769042969,36.5977C88.30820769042968,36.6716,88.74410769042969,37.2221,88.6703076904297,37.8317C88.17520769042969,41.9252,86.10630769042969,47.574,79.07190769042968,51.2427C78.9057076904297,51.3276,78.73210769042969,51.3683,78.55840769042969,51.3683C78.55840769042969,51.3683,78.55840769042969,51.3683,78.55840769042969,51.3683ZM87.48800769042968,33.5866C86.94490769042969,33.5866,86.47200769042969,33.1876,86.39440769042969,32.6372C86.39440769042969,32.6372,86.16540769042969,31.0559,86.16540769042969,31.0559C86.07760769042969,30.4499,86.49770769042969,29.8875,87.10380769042969,29.7998C87.70980769042968,29.712,88.2722076904297,30.1322,88.35990769042968,30.7382C88.35990769042968,30.7382,88.58890769042969,32.3194,88.58890769042969,32.3194C88.63510769042969,32.6385,88.5402076904297,32.9619,88.3287076904297,33.2052C88.11730769042968,33.4486,87.81040769042968,33.5878,87.48800769042968,33.5866C87.48800769042968,33.5866,87.48800769042968,33.5866,87.48800769042968,33.5866Z" fill="#000F04" fill-opacity="1"/></g></g><g><path d="M2.96875,88.67708762939453L2.96875,109.66670762939452L25.1458,109.66670762939452L25.1458,112.19790762939454L29.1458,112.19790762939454L29.1458,88.54167762939453L25.1458,88.54167762939453L25.1458,105.70830762939454L17.9792,105.70830762939454L17.9792,81.90625762939453L13.9479,81.90625762939453L13.9479,105.70830762939454L6.9375,105.70830762939454L6.9375,88.67708762939453L2.96875,88.67708762939453ZM50.5208,81.66667762939453C49.9167,84.65625762939453,49.0208,87.60417762939453,47.8333,90.19790762939454L47.8333,87.89583762939453L40.5417,87.89583762939453C41.1458,86.12500762939453,41.6562,84.30208762939453,42.1042,82.46875762939453L38.0417,81.66667762939453C36.9896,86.70833762939453,35.0312,91.77080762939453,32.5104,94.96880762939453C33.4688,95.53120762939453,35.2604,96.72920762939452,36.0312,97.42710762939453C37.1146,95.86460762939453,38.1354,93.86460762939453,39.0625,91.66670762939454L39.3542,91.66670762939454L39.3542,112.34380762939453L43.2292,112.34380762939453L43.2292,91.66670762939454L47.1042,91.66670762939454C46.4896,92.87500762939453,45.8229,93.96880762939453,45.0833,94.86460762939453C45.9792,95.42710762939453,47.6771,96.62500762939453,48.3438,97.29170762939452C49.4375,95.76040762939454,50.4896,93.83330762939453,51.3854,91.66670762939454L54.9375,91.66670762939454L54.9375,107.67710762939453C54.9375,108.17710762939453,54.75,108.30210762939453,54.2083,108.33330762939454C53.6562,108.33330762939454,51.7708,108.33330762939454,50.1042,108.23960762939453C50.6562,109.39580762939454,51.1979,111.15620762939453,51.3542,112.27080762939454C53.9167,112.27080762939454,55.8646,112.20830762939454,57.1771,111.57290762939454C58.4896,110.95830762939454,58.875,109.84380762939453,58.875,107.73960762939453L58.875,91.66670762939454L63.0417,91.66670762939454L63.0417,87.89583762939453L52.8646,87.89583762939453C53.4688,86.12500762939453,53.9792,84.30208762939453,54.3958,82.43750762939453L50.5208,81.66667762939453ZM67.2604,84.66667762939453C69.0833,86.29167762939453,71.4792,88.68750762939453,72.5417,90.21880762939453L75.2917,87.44792762939453C74.0729,86.01042762939453,71.6146,83.79167762939453,69.8229,82.21875762939453L67.2604,84.66667762939453ZM65.2083,91.66670762939454L65.2083,95.35420762939452L69.8854,95.35420762939452L69.8854,105.43750762939453C69.8854,107.20830762939454,68.9583,108.46880762939453,68.25,109.05210762939453C68.8542,109.62500762939453,69.8854,111.03120762939453,70.2396,111.85420762939452C70.8125,111.12500762939453,71.8333,110.26040762939454,77.3438,106.21880762939453C76.9583,105.46880762939453,76.4167,103.83330762939454,76.1875,102.78120762939453L73.6875,104.55210762939453L73.6875,91.66670762939454L65.2083,91.66670762939454ZM77.2083,83.86458762939453L77.2083,87.66667762939453L89.3125,87.66667762939453L89.3125,94.33330762939453L77.8854,94.33330762939453L77.8854,106.38540762939454C77.8854,110.55210762939453,79.2292,111.66670762939452,83.5208,111.66670762939452C84.4167,111.66670762939452,88.5729,111.66670762939452,89.5312,111.66670762939452C93.5,111.66670762939452,94.625,110.10420762939452,95.1042,104.48960762939453C94.0104,104.19790762939454,92.3542,103.54170762939452,91.4583,102.85420762939452C91.2292,107.23960762939453,90.9688,107.98960762939453,89.25,107.98960762939453C88.25,107.98960762939453,84.7604,107.98960762939453,83.9375,107.98960762939453C82.1354,107.98960762939453,81.8542,107.76040762939454,81.8542,106.35420762939452L81.8542,97.95830762939454L89.3125,97.95830762939454L89.3125,99.55210762939453L93.1771,99.55210762939453L93.1771,83.86458762939453L77.2083,83.86458762939453ZM98.2396,83.00000762939453L98.2396,103.47920762939452L101.052,103.47920762939452L101.052,86.04167762939453L106.333,86.04167762939453L106.333,103.34380762939453L109.208,103.34380762939453L109.208,83.00000762939453L98.2396,83.00000762939453ZM122.271,83.00000762939453C120.896,85.85417762939453,118.49,88.67708762939453,116.062,90.46880762939453C116.833,91.10420762939454,118.177,92.55210762939453,118.75,93.29170762939454C121.344,91.10420762939454,124.125,87.61458762939453,125.854,84.15625762939453L122.271,83.00000762939453ZM102.271,87.52083762939453L102.271,97.03120762939453C102.271,101.13540762939454,101.823,106.79170762939452,96.8958,109.72920762939452C97.5625,110.26040762939454,98.4896,111.32290762939454,98.875,111.97920762939452C101.375,110.29170762939452,102.906,108.08330762939454,103.833,105.66670762939452C105.177,107.44790762939454,106.75,109.80210762939453,107.417,111.29170762939452L109.823,109.30210762939453C109.052,107.81250762939453,107.292,105.46880762939453,105.885,103.75000762939453L104,105.16670762939452C104.927,102.48960762939453,105.146,99.61460762939453,105.146,97.03120762939453L105.146,87.52083762939453L102.271,87.52083762939453ZM111.802,112.44790762939454C112.448,111.88540762939454,113.562,111.38540762939454,119.677,108.87500762939453C119.521,108.01040762939454,119.354,106.39580762939454,119.385,105.30210762939453L115.448,106.76040762939454L115.448,97.15620762939453L117.344,97.15620762939453C118.719,103.25000762939453,121.021,108.57290762939454,124.698,111.61460762939453C125.281,110.62500762939453,126.427,109.23960762939453,127.292,108.54170762939452C124.188,106.26040762939454,122.042,101.92710762939453,120.896,97.15620762939453L126.562,97.15620762939453L126.562,93.66670762939454L115.448,93.66670762939454L115.448,82.33333762939453L111.927,82.33333762939453L111.927,93.66670762939454L109.823,93.66670762939454L109.823,97.15620762939453L111.927,97.15620762939453L111.927,106.82290762939454C111.927,108.28120762939453,111.031,109.00000762939453,110.365,109.36460762939453C110.906,110.06250762939453,111.583,111.55210762939453,111.802,112.44790762939454Z" fill="#D4D4EE" fill-opacity="1"/></g></g></svg>